<svg width="538" height="232" viewBox="0 0 538 232" fill="none" xmlns="http://www.w3.org/2000/svg">
<g filter="url(#filter0_d_513_47)">
<mask id="path-1-outside-1_513_47" maskUnits="userSpaceOnUse" x="0" y="-0.264404" width="538" height="215" fill="black">
<rect fill="white" y="-0.264404" width="538" height="215"/>
<path d="M83.9865 52.1693C70.2648 52.1693 66.6972 56.8347 65.325 70.8308H9.06616C10.7128 23.9027 38.705 8.25994 83.9865 8.25994C132.836 8.25994 158.358 23.9027 158.358 67.2632C158.358 129.285 76.8512 129.56 71.9114 155.082H158.358V201.736H9.34059L9.34059 174.292C9.34059 95.5298 102.099 106.507 102.099 71.6541V66.9887C102.099 56.8347 97.4338 52.1693 83.9865 52.1693ZM346.223 107.056C346.223 178.134 317.956 205.852 263.893 205.852C209.829 205.852 181.563 178.134 181.563 107.056C181.563 37.6243 209.829 8.25994 263.893 8.25994C317.956 8.25994 346.223 37.6243 346.223 107.056ZM289.964 122.973V90.59C289.964 65.0677 284.75 52.1693 263.893 52.1693C243.036 52.1693 237.822 63.4211 237.822 90.59V122.973C237.822 152.063 243.036 161.668 263.893 161.943C284.75 162.217 289.964 152.063 289.964 122.973ZM530.072 107.056C530.072 178.134 501.805 205.852 447.742 205.852C393.678 205.852 365.412 178.134 365.412 107.056C365.412 37.6243 393.678 8.25994 447.742 8.25994C501.805 8.25994 530.072 37.6243 530.072 107.056ZM473.813 122.973V90.59C473.813 65.0677 468.599 52.1693 447.742 52.1693C426.885 52.1693 421.671 63.4211 421.671 90.59V122.973C421.671 152.063 426.885 161.668 447.742 161.943C468.599 162.217 473.813 152.063 473.813 122.973Z"/>
</mask>
<path d="M83.9865 52.1693C70.2648 52.1693 66.6972 56.8347 65.325 70.8308H9.06616C10.7128 23.9027 38.705 8.25994 83.9865 8.25994C132.836 8.25994 158.358 23.9027 158.358 67.2632C158.358 129.285 76.8512 129.56 71.9114 155.082H158.358V201.736H9.34059L9.34059 174.292C9.34059 95.5298 102.099 106.507 102.099 71.6541V66.9887C102.099 56.8347 97.4338 52.1693 83.9865 52.1693ZM346.223 107.056C346.223 178.134 317.956 205.852 263.893 205.852C209.829 205.852 181.563 178.134 181.563 107.056C181.563 37.6243 209.829 8.25994 263.893 8.25994C317.956 8.25994 346.223 37.6243 346.223 107.056ZM289.964 122.973V90.59C289.964 65.0677 284.75 52.1693 263.893 52.1693C243.036 52.1693 237.822 63.4211 237.822 90.59V122.973C237.822 152.063 243.036 161.668 263.893 161.943C284.75 162.217 289.964 152.063 289.964 122.973ZM530.072 107.056C530.072 178.134 501.805 205.852 447.742 205.852C393.678 205.852 365.412 178.134 365.412 107.056C365.412 37.6243 393.678 8.25994 447.742 8.25994C501.805 8.25994 530.072 37.6243 530.072 107.056ZM473.813 122.973V90.59C473.813 65.0677 468.599 52.1693 447.742 52.1693C426.885 52.1693 421.671 63.4211 421.671 90.59V122.973C421.671 152.063 426.885 161.668 447.742 161.943C468.599 162.217 473.813 152.063 473.813 122.973Z" fill="url(#paint0_linear_513_47)"/>
<path d="M65.325 70.8308V78.7414H72.498L73.1979 71.6026L65.325 70.8308ZM9.06616 70.8308L1.16045 70.5534L0.873158 78.7414H9.06616V70.8308ZM71.9114 155.082L64.145 153.579L62.323 162.992H71.9114V155.082ZM158.358 155.082H166.269V147.171H158.358V155.082ZM158.358 201.736V209.646H166.269V201.736H158.358ZM9.34059 201.736H1.43002V209.646H9.34059V201.736ZM83.9865 44.2587C76.6042 44.2587 69.4135 45.4262 64.298 50.7943C59.49 55.8397 58.1423 63.0205 57.4522 70.0589L73.1979 71.6026C73.88 64.645 75.0022 62.4951 75.7515 61.7088C76.1932 61.2452 77.6472 60.0799 83.9865 60.0799V44.2587ZM65.325 62.9202H9.06616L9.06616 78.7414H65.325V62.9202ZM16.9719 71.1082C17.7389 49.2474 24.5147 36.1761 34.9498 28.2454C45.7757 20.0177 62.0011 16.1705 83.9865 16.1705V0.349374C60.6904 0.349374 40.2789 4.3235 25.3767 15.6492C10.0837 27.2719 2.04001 45.4861 1.16045 70.5534L16.9719 71.1082ZM83.9865 16.1705C107.887 16.1705 124.35 20.0624 134.756 27.8382C144.635 35.2206 150.447 47.2049 150.447 67.2632H166.269C166.269 43.9609 159.32 26.4436 144.226 15.1646C129.658 4.27889 108.936 0.349374 83.9865 0.349374V16.1705ZM150.447 67.2632C150.447 93.656 133.632 107.197 113.313 117.854C108.249 120.51 103.129 122.902 98.076 125.271C93.1029 127.603 88.1207 129.947 83.691 132.383C79.2888 134.804 75.0148 137.535 71.5904 140.795C68.1153 144.102 65.1693 148.287 64.145 153.579L79.6779 156.585C79.8885 155.497 80.5702 154.09 82.498 152.255C84.4765 150.372 87.3807 148.41 91.3144 146.246C95.2206 144.098 99.7321 141.968 104.793 139.595C109.774 137.26 115.228 134.715 120.662 131.865C142.331 120.5 166.269 102.892 166.269 67.2632H150.447ZM71.9114 162.992H158.358V147.171H71.9114V162.992ZM150.447 155.082V201.736H166.269V155.082H150.447ZM158.358 193.825H9.34059V209.646H158.358V193.825ZM17.2512 201.736V174.292H1.43002V201.736H17.2512ZM17.2512 174.292C17.2512 156.324 22.4807 144.043 29.9479 134.948C37.5824 125.65 47.9869 119.151 59.224 113.599C64.8517 110.819 70.4422 108.389 75.993 105.893C81.4255 103.452 86.8521 100.933 91.6091 98.1417C100.93 92.6723 110.01 84.7674 110.01 71.6541H94.1886C94.1886 75.9673 91.6735 79.7601 83.6021 84.4963C79.6631 86.8077 74.9442 89.0189 69.5065 91.4631C64.1871 93.8542 58.1828 96.4668 52.2158 99.415C40.2632 105.321 27.4781 113.024 17.7203 124.909C7.79533 136.997 1.43002 152.879 1.43002 174.292H17.2512ZM110.01 71.6541V66.9887H94.1886V71.6541H110.01ZM110.01 66.9887C110.01 60.8494 108.6 54.3553 103.228 49.76C98.1903 45.4509 91.2753 44.2587 83.9865 44.2587V60.0799C90.145 60.0799 92.2862 61.2204 92.9434 61.7825C93.2659 62.0584 94.1886 62.974 94.1886 66.9887H110.01ZM338.312 107.056C338.312 141.794 331.362 164.191 319.376 177.902C307.603 191.369 289.637 197.942 263.893 197.942V213.763C292.212 213.763 315.411 206.476 331.287 188.315C346.95 170.398 354.133 143.397 354.133 107.056H338.312ZM263.893 197.942C238.148 197.942 220.182 191.369 208.41 177.902C196.423 164.191 189.473 141.794 189.473 107.056H173.652C173.652 143.397 180.835 170.398 196.498 188.315C212.375 206.476 235.574 213.763 263.893 213.763V197.942ZM189.473 107.056C189.473 73.1907 196.403 50.7407 208.443 36.7893C220.267 23.087 238.271 16.1705 263.893 16.1705V0.349374C235.451 0.349374 212.29 8.11505 196.465 26.4529C180.855 44.5416 173.652 71.4896 173.652 107.056H189.473ZM263.893 16.1705C289.514 16.1705 307.518 23.087 319.343 36.7893C331.382 50.7407 338.312 73.1907 338.312 107.056H354.133C354.133 71.4896 346.93 44.5416 331.32 26.4529C315.496 8.11505 292.334 0.349374 263.893 0.349374V16.1705ZM297.874 122.973V90.59H282.053V122.973H297.874ZM297.874 90.59C297.874 77.7474 296.659 66.1464 291.504 57.6911C285.731 48.222 276.149 44.2587 263.893 44.2587V60.0799C272.493 60.0799 275.947 62.5658 277.995 65.9265C280.662 70.3009 282.053 77.9103 282.053 90.59H297.874ZM263.893 44.2587C252.006 44.2587 242.265 47.5722 236.342 56.9755C231.097 65.3028 229.911 77.0315 229.911 90.59H245.732C245.732 76.9796 247.153 69.4979 249.729 65.4072C251.628 62.3923 254.922 60.0799 263.893 60.0799V44.2587ZM229.911 90.59V122.973H245.732V90.59H229.911ZM229.911 122.973C229.911 137.384 231.07 149.294 236.385 157.547C242.417 166.912 252.289 169.701 263.789 169.853L263.997 154.033C254.64 153.91 251.476 151.759 249.686 148.98C247.181 145.09 245.732 137.652 245.732 122.973H229.911ZM263.789 169.853C275.429 170.006 285.372 167.219 291.422 157.719C296.713 149.411 297.874 137.387 297.874 122.973H282.053C282.053 137.649 280.608 145.247 278.077 149.22C276.306 152.001 273.213 154.154 263.997 154.033L263.789 169.853ZM522.161 107.056C522.161 141.794 515.211 164.191 503.225 177.902C491.452 191.369 473.486 197.942 447.742 197.942V213.763C476.061 213.763 499.26 206.476 515.136 188.315C530.799 170.398 537.982 143.397 537.982 107.056H522.161ZM447.742 197.942C421.997 197.942 404.031 191.369 392.259 177.902C380.272 164.191 373.322 141.794 373.322 107.056H357.501C357.501 143.397 364.684 170.398 380.347 188.315C396.224 206.476 419.423 213.763 447.742 213.763V197.942ZM373.322 107.056C373.322 73.1907 380.252 50.7407 392.292 36.7893C404.116 23.087 422.12 16.1705 447.742 16.1705V0.349374C419.3 0.349374 396.139 8.11505 380.314 26.4529C364.704 44.5416 357.501 71.4896 357.501 107.056H373.322ZM447.742 16.1705C473.363 16.1705 491.367 23.087 503.192 36.7893C515.231 50.7407 522.161 73.1907 522.161 107.056H537.982C537.982 71.4896 530.779 44.5416 515.169 26.4529C499.345 8.11505 476.184 0.349374 447.742 0.349374V16.1705ZM481.724 122.973V90.59H465.902V122.973H481.724ZM481.724 90.59C481.724 77.7474 480.508 66.1464 475.353 57.6911C469.58 48.222 459.998 44.2587 447.742 44.2587V60.0799C456.342 60.0799 459.796 62.5658 461.844 65.9265C464.511 70.3009 465.902 77.9103 465.902 90.59H481.724ZM447.742 44.2587C435.855 44.2587 426.114 47.5722 420.191 56.9755C414.946 65.3028 413.76 77.0315 413.76 90.59H429.581C429.581 76.9796 431.002 69.4979 433.578 65.4072C435.477 62.3923 438.771 60.0799 447.742 60.0799V44.2587ZM413.76 90.59V122.973H429.581V90.59H413.76ZM413.76 122.973C413.76 137.384 414.919 149.294 420.234 157.547C426.266 166.912 436.138 169.701 447.638 169.853L447.846 154.033C438.489 153.91 435.325 151.759 433.535 148.98C431.03 145.09 429.581 137.652 429.581 122.973H413.76ZM447.638 169.853C459.278 170.006 469.221 167.219 475.271 157.719C480.562 149.411 481.724 137.387 481.724 122.973H465.902C465.902 137.649 464.457 145.247 461.926 149.22C460.155 152.001 457.062 154.154 447.846 154.033L447.638 169.853Z" fill="black" mask="url(#path-1-outside-1_513_47)"/>
</g>
<defs>
<filter id="filter0_d_513_47" x="0.873047" y="0.349365" width="537.109" height="230.817" filterUnits="userSpaceOnUse" color-interpolation-filters="sRGB">
<feFlood flood-opacity="0" result="BackgroundImageFix"/>
<feColorMatrix in="SourceAlpha" type="matrix" values="0 0 0 0 0 0 0 0 0 0 0 0 0 0 0 0 0 0 127 0" result="hardAlpha"/>
<feOffset dy="17.4033"/>
<feComposite in2="hardAlpha" operator="out"/>
<feColorMatrix type="matrix" values="0 0 0 0 0 0 0 0 0 0 0 0 0 0 0 0 0 0 1 0"/>
<feBlend mode="normal" in2="BackgroundImageFix" result="effect1_dropShadow_513_47"/>
<feBlend mode="normal" in="SourceGraphic" in2="effect1_dropShadow_513_47" result="shape"/>
</filter>
<linearGradient id="paint0_linear_513_47" x1="267.5" y1="0.735596" x2="267.5" y2="199.736" gradientUnits="userSpaceOnUse">
<stop stop-color="white"/>
<stop offset="1" stop-color="#DEE6FF"/>
</linearGradient>
</defs>
</svg>
